<svg xmlns="http://www.w3.org/2000/svg" viewBox="0 0 1600 520" role="img" aria-label="Nezam site-color manufacturing logo">
  <defs>
    <linearGradient id="bg3" x1="0" x2="1" y1="0" y2="0">
      <stop offset="0%" stop-color="#f8fafc"/>
      <stop offset="100%" stop-color="#eff6ff"/>
    </linearGradient>
  </defs>
  <rect width="1600" height="520" fill="url(#bg3)"/>
  <path d="M268 102 L294 131 L337 127 L349 170 L389 187 L379 230 L406 261 L379 292 L389 335 L349 352 L337 395 L294 391 L268 420 L242 391 L199 395 L187 352 L147 335 L157 292 L130 261 L157 230 L147 187 L187 170 L199 127 L242 131 Z" fill="#1e3a8a"/>
  <circle cx="268" cy="261" r="76" fill="#f8fafc"/>
  <circle cx="268" cy="161" r="8" fill="#64748b"/>
  <circle cx="355" cy="211" r="8" fill="#64748b"/>
  <circle cx="355" cy="311" r="8" fill="#64748b"/>
  <circle cx="268" cy="361" r="8" fill="#64748b"/>
  <circle cx="181" cy="311" r="8" fill="#64748b"/>
  <circle cx="181" cy="211" r="8" fill="#64748b"/>
  <path d="M202 344 L226 224" stroke="#2563eb" stroke-width="30" stroke-linecap="round" fill="none"/>
  <path d="M226 224 L306 392" stroke="#1d4ed8" stroke-width="27" stroke-linecap="round" fill="none"/>
  <path d="M306 392 L340 222" stroke="#3b82f6" stroke-width="30" stroke-linecap="round" fill="none"/>
  <path d="M294 364 L334 404 L420 314" stroke="#3b82f6" stroke-width="13" stroke-linecap="round" stroke-linejoin="round" fill="none"/>
  <ellipse cx="282" cy="364" rx="10" ry="14" fill="#2563eb"/>
  <circle cx="272" cy="354" r="5" fill="#2563eb"/>
  <circle cx="283" cy="348" r="5" fill="#2563eb"/>
  <circle cx="294" cy="350" r="5" fill="#2563eb"/>
  <text x="540" y="300" font-family="Segoe UI, Arial, sans-serif" font-size="182" font-weight="700" fill="#1e293b">Nezam</text>
  <line x1="540" y1="340" x2="1125" y2="340" stroke="#e2e8f0"/>
</svg>
